# xmcd
# 
# Track frame offsets:
#     150
#     14767
#     30172
#     41878
#     52093
#     65337
#     78894
#     96040
#     110734
#     120914
# 
# Disc length: 1824
# 
# Revision: 0
# Processed by: cddbd v1.5.2PL0 Copyright (c) Steve Scherf et al.
# Submitted via: fre:ac v1.0.27
# 
DISCID=7b071e0a
DTITLE=Willie Nelson - Sweet Memories
DYEAR=1979
DGENRE=Country
TTITLE0=Sweet Memories
TTITLE1=Everybody's Talkin'
TTITLE2=Wonderful Future
TTITLE3=December Day
TTITLE4=Help Me Make It Through the Night
TTITLE5=Both Sides Now
TTITLE6=Wake Me When It's Over
TTITLE7=Little Things
TTITLE8=Buddy
TTITLE9=Will You Remember
EXTD=
EXTT0=
EXTT1=
EXTT2=
EXTT3=
EXTT4=
EXTT5=
EXTT6=
EXTT7=
EXTT8=
EXTT9=
PLAYORDER=
